HIERARCHY
ROOT Hips
{
 OFFSET 0.000000 0.000000 0.000000
 CHANNELS 6 Xposition Yposition Zposition Yrotation Xrotation Zrotation
 JOINT Chest
 {
  OFFSET 0.000000 9.585900 0.002600
  CHANNELS 3 Yrotation Xrotation Zrotation
  JOINT Chest2
  {
   OFFSET 0.000000 9.601200 -0.005300
   CHANNELS 3 Yrotation Xrotation Zrotation
   JOINT Chest3
   {
    OFFSET 0.000000 9.561800 0.000000
    CHANNELS 3 Yrotation Xrotation Zrotation
    JOINT Chest4
    {
     OFFSET 0.000000 9.552100 0.000000
     CHANNELS 3 Yrotation Xrotation Zrotation
     JOINT Neck
     {
      OFFSET 0.000000 14.453000 0.000000
      CHANNELS 3 Yrotation Xrotation Zrotation
      JOINT Head
      {
       OFFSET 0.000000 8.936500 -0.011300
       CHANNELS 3 Yrotation Xrotation Zrotation
       End Site
       {
        OFFSET 0.000000 17.073600 -0.006000
       }
      }
     }
     JOINT RightCollar
     {
      OFFSET -2.921100 9.558500 0.000000
      CHANNELS 3 Yrotation Xrotation Zrotation
      JOINT RightShoulder
      {
       OFFSET -13.519700 0.000000 0.000000
       CHANNELS 3 Yrotation Xrotation Zrotation
       JOINT RightElbow
       {
        OFFSET 0.000000 -29.696600 0.000000
        CHANNELS 3 Yrotation Xrotation Zrotation
        JOINT RightWrist
        {
         OFFSET 0.000000 -24.004700 0.000000
         CHANNELS 3 Yrotation Xrotation Zrotation
         End Site
         {
          OFFSET 0.000000 -17.728500 0.000000
         }
        }
       }
      }
     }
     JOINT LeftCollar
     {
      OFFSET 2.921100 9.558500 0.000000
      CHANNELS 3 Yrotation Xrotation Zrotation
      JOINT LeftShoulder
      {
       OFFSET 13.519700 0.000000 0.000000
       CHANNELS 3 Yrotation Xrotation Zrotation
       JOINT LeftElbow
       {
        OFFSET 0.000000 -29.696600 0.000000
        CHANNELS 3 Yrotation Xrotation Zrotation
        JOINT LeftWrist
        {
         OFFSET 0.000000 -24.004700 0.000000
         CHANNELS 3 Yrotation Xrotation Zrotation
         End Site
         {
          OFFSET 0.000000 -17.728500 0.000000
         }
        }
       }
      }
     }
    }
   }
  }
 }
 JOINT RightHip
 {
  OFFSET -7.771700 -0.012900 -0.001300
  CHANNELS 3 Yrotation Xrotation Zrotation
  JOINT RightKnee
  {
   OFFSET 0.000000 -40.869800 0.001200
   CHANNELS 3 Yrotation Xrotation Zrotation
   JOINT RightAnkle
   {
    OFFSET 0.000000 -39.717900 0.002100
    CHANNELS 3 Yrotation Xrotation Zrotation
    JOINT RightToe
    {
     OFFSET 0.000000 -4.965400 11.033500
     CHANNELS 3 Yrotation Xrotation Zrotation
     End Site
     {
      OFFSET 0.000000 -1.423100 5.872300
     }
    }
   }
  }
 }
 JOINT LeftHip
 {
  OFFSET 7.771700 -0.012900 -0.001300
  CHANNELS 3 Yrotation Xrotation Zrotation
  JOINT LeftKnee
  {
   OFFSET 0.000000 -40.869800 0.001200
   CHANNELS 3 Yrotation Xrotation Zrotation
   JOINT LeftAnkle
   {
    OFFSET 0.000000 -39.717900 0.002100
    CHANNELS 3 Yrotation Xrotation Zrotation
    JOINT LeftToe
    {
     OFFSET 0.000000 -4.965400 11.033500
     CHANNELS 3 Yrotation Xrotation Zrotation
     End Site
     {
      OFFSET 0.000000 -1.423100 5.872300
     }
    }
   }
  }
 }
}
MOTION
Frames: 9
Frame Time: 0.008333
-189.385483 58.036521 29.008165 170.776563 -48.167429 -2.811987 5.246324 22.001562 3.835846 2.719291 12.598857 1.990241 3.468582 15.753010 2.557297 2.731250 12.601068 1.998973 -1.150914 16.690676 -1.036275 -1.772319 -4.803781 -1.520033 0.210599 3.879779 0.503306 -0.706011 -11.646768 -9.961003 -174.507647 -80.823040 -158.112236 23.665091 6.504947 -14.183579 -10.524006 0.992240 -1.388451 -2.626570 -9.992184 16.728972 65.394999 -78.837363 -99.064099 -14.807138 -15.184480 12.261698 3.457243 -24.490264 0.221901 -36.427447 73.448352 -37.661993 6.424091 -12.113356 8.927888 0.013246 -0.095367 0.028033 -1.177081 -22.983147 12.418705 52.438731 79.658097 52.306173 4.302953 -16.075329 -16.094953 0.045318 0.125962 0.033415
-189.386395 58.036805 29.008400 170.779195 -48.181289 -2.806663 5.246367 22.006680 3.844306 2.719162 12.598230 1.996011 3.471383 15.757527 2.564895 2.730591 12.599758 2.005976 -1.144214 16.669777 -1.069077 -1.748418 -4.842703 -1.583051 0.206820 3.874884 0.500315 -0.706068 -11.647536 -9.968305 -174.519598 -80.821254 -158.100907 23.668981 6.516954 -14.173161 -10.526907 0.989549 -1.388559 -2.637930 -9.991800 16.715227 65.331410 -78.852019 -99.005226 -14.794632 -15.179577 12.262720 3.459735 -24.476613 0.212787 -36.483595 73.444215 -37.711971 6.438631 -12.129826 8.915489 0.016168 -0.092359 0.031478 -1.172385 -22.969935 12.413217 52.426681 79.660289 52.292578 4.302887 -16.073355 -16.094385 0.051073 0.124580 0.032726
-189.387345 58.038474 29.007413 170.781712 -48.205733 -2.801412 5.245945 22.019913 3.853367 2.721494 12.598916 2.001566 3.481193 15.751305 2.592851 2.718303 12.610029 1.994535 -1.145430 16.657021 -1.098830 -1.743875 -4.854601 -1.610194 0.203178 3.871193 0.497647 -0.698331 -11.649890 -9.975943 -174.587435 -80.831476 -158.044678 23.670557 6.515070 -14.165256 -10.526943 0.991203 -1.389748 -2.645361 -10.016760 16.740930 65.289510 -78.806190 -98.980337 -14.800156 -15.160737 12.259961 3.462104 -24.451427 0.205655 -36.495158 73.446718 -37.722017 6.443234 -12.142914 8.902942 0.013268 -0.086714 0.040448 -1.166850 -22.945531 12.406296 52.420776 79.661367 52.286247 4.303270 -16.068684 -16.095109 0.058954 0.119973 0.031844
-189.388715 58.039137 29.007271 170.776766 -48.222160 -2.790188 5.250623 22.023837 3.860060 2.722795 12.602993 2.004201 3.488229 15.747494 2.610559 2.714103 12.613871 1.995376 -1.138182 16.638222 -1.129977 -1.748038 -4.858519 -1.632173 0.200374 3.867719 0.496993 -0.694002 -11.647548 -9.983096 -174.664164 -80.837421 -157.978666 23.673808 6.510945 -14.156345 -10.526285 0.993988 -1.390869 -2.653947 -10.035148 16.752212 65.252016 -78.776954 -98.959302 -14.796780 -15.155637 12.262725 3.469978 -24.435906 0.198194 -36.504790 73.451237 -37.730787 6.436755 -12.162140 8.890020 0.014269 -0.081913 0.045705 -1.153380 -22.928049 12.401458 52.416564 79.662294 52.277944 4.311077 -16.070959 -16.097576 0.049949 0.123049 0.035433
-189.389551 58.039570 29.007493 170.777934 -48.236300 -2.788063 5.258140 22.024262 3.875387 2.720713 12.604468 2.009230 3.488885 15.748766 2.617715 2.714461 12.614935 2.001047 -1.121619 16.613636 -1.162484 -1.733283 -4.886423 -1.685827 0.196874 3.863893 0.496785 -0.676409 -11.650607 -9.979289 -174.805395 -80.836716 -157.847069 23.673830 6.533976 -14.154252 -10.527177 0.994635 -1.391423 -2.662498 -10.043470 16.747727 65.205698 -78.776136 -98.918523 -14.777642 -15.157961 12.257811 3.471589 -24.422661 0.199197 -36.520093 73.451126 -37.746911 6.431734 -12.170617 8.885990 0.013319 -0.086179 0.043166 -1.147778 -22.914711 12.401300 52.413674 79.661871 52.275215 4.303007 -16.067796 -16.098494 0.049527 0.120575 0.036609
-189.390740 58.038895 29.008709 170.771919 -48.241864 -2.780303 5.266878 22.016832 3.887920 2.722972 12.601287 2.018520 3.483398 15.756888 2.615209 2.720554 12.611370 2.010562 -1.130578 16.611899 -1.186925 -1.692051 -4.933977 -1.756518 0.190830 3.860147 0.496910 -0.673927 -11.644291 -9.983029 -174.831418 -80.826774 -157.822863 23.680528 6.556210 -14.145945 -10.528359 0.994995 -1.390860 -2.675816 -10.040541 16.731422 65.172467 -78.781676 -98.882057 -14.764920 -15.150813 12.249419 3.475799 -24.421735 0.195417 -36.508463 73.458651 -37.735698 6.433158 -12.173850 8.879719 -0.004498 -0.094664 0.037930 -1.135009 -22.909223 12.401604 52.379503 79.663970 52.238110 4.299979 -16.070605 -16.090307 0.047097 0.125274 0.033259
-189.392285 58.038989 29.009220 170.779522 -48.253486 -2.780675 5.267857 22.004051 3.907631 2.719984 12.610796 2.015538 3.473003 15.770284 2.605519 2.737410 12.597379 2.029180 -1.111856 16.592594 -1.216556 -1.674493 -4.954758 -1.807150 0.181795 3.858610 0.497592 -0.671357 -11.636078 -9.985802 -174.836508 -80.820663 -157.822354 23.692899 6.559668 -14.137432 -10.539997 1.003580 -1.401157 -2.673873 -10.053542 16.743568 65.105163 -78.769976 -98.823092 -14.749117 -15.147440 12.246791 3.473897 -24.411186 0.188614 -36.491797 73.473238 -37.719010 6.427817 -12.186239 8.876722 0.010201 -0.100279 0.033913 -1.124567 -22.899845 12.402623 52.337854 79.665318 52.197967 4.282788 -16.069823 -16.080966 0.051721 0.125651 0.033125
-189.395014 58.038712 29.009953 170.789638 -48.262073 -2.776771 5.258506 22.010191 3.899686 2.727940 12.597274 2.031027 3.474044 15.771546 2.610727 2.739734 12.594705 2.036737 -1.093368 16.574893 -1.246537 -1.654654 -4.970262 -1.858311 0.171150 3.857965 0.498250 -0.668222 -11.626207 -9.990368 -174.780570 -80.800061 -157.882926 23.708298 6.580011 -14.119961 -10.550740 1.015377 -1.412146 -2.668174 -10.073911 16.766141 65.029041 -78.754033 -98.755445 -14.717091 -15.143256 12.226355 3.469138 -24.401235 0.173262 -36.474031 73.478765 -37.700893 6.431265 -12.194289 8.871919 0.021013 -0.103854 0.030646 -1.120491 -22.894659 12.393607 52.312565 79.663882 52.164834 4.280777 -16.061997 -16.066381 0.041984 0.125153 0.029259
-189.396701 58.038635 29.010840 170.797916 -48.272213 -2.778278 5.259421 22.002893 3.912953 2.725646 12.598745 2.034388 3.479095 15.767461 2.620958 2.737679 12.597646 2.039986 -1.083589 16.565020 -1.273250 -1.580368 -5.025921 -1.964227 0.163021 3.855233 0.499269 -0.666306 -11.615663 -9.995378 -174.832600 -80.803196 -157.837517 23.711132 6.579720 -14.106265 -10.552286 1.017964 -1.409243 -2.676741 -10.071562 16.750207 65.013104 -78.750654 -98.742768 -14.706374 -15.143707 12.219352 3.461009 -24.389523 0.166759 -36.456134 73.479353 -37.683173 6.434628 -12.199404 8.865297 0.021724 -0.106458 0.028755 -1.119126 -22.888157 12.390327 52.286308 79.668876 52.136390 4.286552 -16.057946 -16.062400 0.035241 0.124923 0.030839
